<svg width="24" height="24" viewBox="0 0 24 24" fill="none" xmlns="http://www.w3.org/2000/svg">
<g clip-path="url(#clip0_12291_360)">
<path d="M19.9999 15.3099L22.5999 12.7099C22.9899 12.3199 22.9899 11.6899 22.5999 11.2999L19.9999 8.68992V4.99992C19.9999 4.44992 19.5499 3.99992 18.9999 3.99992H15.3099L12.7099 1.39992C12.3199 1.00992 11.6899 1.00992 11.2999 1.39992L8.68992 3.99992H4.99992C4.44992 3.99992 3.99992 4.44992 3.99992 4.99992V8.68992L1.39992 11.2899C1.00992 11.6799 1.00992 12.3099 1.39992 12.6999L3.99992 15.2999V18.9999C3.99992 19.5499 4.44992 19.9999 4.99992 19.9999H8.68992L11.2899 22.5999C11.6799 22.9899 12.3099 22.9899 12.6999 22.5999L15.2999 19.9999H18.9999C19.5499 19.9999 19.9999 19.5499 19.9999 18.9999V15.3099ZM11.9999 17.9999C8.68992 17.9999 5.99992 15.3099 5.99992 11.9999C5.99992 8.68992 8.68992 5.99992 11.9999 5.99992C15.3099 5.99992 17.9999 8.68992 17.9999 11.9999C17.9999 15.3099 15.3099 17.9999 11.9999 17.9999Z" fill="currentColor"/>
</g>
<defs>
<clipPath id="clip0_12291_360">
<rect width="24" height="24" fill="white"/>
</clipPath>
</defs>
</svg>
